<svg xmlns="http://www.w3.org/2000/svg"><g><path d="M-73.47322113330901,-16.958081320861197L-112.91785013681402,588.380723269025L-29.408580493249644,259.8878223092341Z" fill="#e48673" stroke="#e48673" fill-opacity="1" stroke-opacity="1"/><path d="M-73.47322113330901,-16.958081320861197L-29.408580493249644,259.8878223092341L-15.165807479587158,64.37772360032395Z" fill="#e76244" stroke="#e76244" fill-opacity="1" stroke-opacity="1"/><path d="M-73.47322113330901,-16.958081320861197L-15.165807479587158,64.37772360032395L32.580822135736014,-62.80495623773402Z" fill="#e92d27" stroke="#e92d27" fill-opacity="1" stroke-opacity="1"/><path d="M32.580822135736014,-62.80495623773402L-15.165807479587158,64.37772360032395L56.6518352961603,59.743590451983444Z" fill="#ee4634" stroke="#ee4634" fill-opacity="1" stroke-opacity="1"/><path d="M32.580822135736014,-62.80495623773402L56.6518352961603,59.743590451983444L166.15220202034678,-31.279474569997916Z" fill="#f34332" stroke="#f34332" fill-opacity="1" stroke-opacity="1"/><path d="M32.580822135736014,-62.80495623773402L166.15220202034678,-31.279474569997916L352.40691975046514,-124.22078401094672Z" fill="#fd452e" stroke="#fd452e" fill-opacity="1" stroke-opacity="1"/><path d="M166.15220202034678,-31.279474569997916L56.6518352961603,59.743590451983444L256.48535360091705,84.78262306392821Z" fill="#fb704a" stroke="#fb704a" fill-opacity="1" stroke-opacity="1"/><path d="M166.15220202034678,-31.279474569997916L256.48535360091705,84.78262306392821L352.40691975046514,-124.22078401094672Z" fill="#fe6546" stroke="#fe6546" fill-opacity="1" stroke-opacity="1"/><path d="M352.40691975046514,-124.22078401094672L256.48535360091705,84.78262306392821L381.1826168942806,117.92020955745464Z" fill="#fe8f5f" stroke="#fe8f5f" fill-opacity="1" stroke-opacity="1"/><path d="M352.40691975046514,-124.22078401094672L381.1826168942806,117.92020955745464L453.7005968680601,-63.51731999175152Z" fill="#ff815a" stroke="#ff815a" fill-opacity="1" stroke-opacity="1"/><path d="M352.40691975046514,-124.22078401094672L453.7005968680601,-63.51731999175152L595.3163694224302,-90.82360581815351Z" fill="#ff7752" stroke="#ff7752" fill-opacity="1" stroke-opacity="1"/><path d="M352.40691975046514,-124.22078401094672L595.3163694224302,-90.82360581815351L924.0188045339374,-112.71925708552392Z" fill="#fc7e67" stroke="#fc7e67" fill-opacity="1" stroke-opacity="1"/><path d="M352.40691975046514,-124.22078401094672L924.0188045339374,-112.71925708552392L1045.280006390308,-119.28919449767392Z" fill="#ef797c" stroke="#ef797c" fill-opacity="1" stroke-opacity="1"/><path d="M453.7005968680601,-63.51731999175152L381.1826168942806,117.92020955745464L496.13520025634233,72.04408246188414Z" fill="#ffa872" stroke="#ffa872" fill-opacity="1" stroke-opacity="1"/><path d="M453.7005968680601,-63.51731999175152L496.13520025634233,72.04408246188414L595.3163694224302,-90.82360581815351Z" fill="#ff8967" stroke="#ff8967" fill-opacity="1" stroke-opacity="1"/><path d="M595.3163694224302,-90.82360581815351L496.13520025634233,72.04408246188414L668.4206304623316,51.13516166956031Z" fill="#ffa27b" stroke="#ffa27b" fill-opacity="1" stroke-opacity="1"/><path d="M595.3163694224302,-90.82360581815351L668.4206304623316,51.13516166956031L741.0004847201742,-41.11656251797072Z" fill="#f88b7c" stroke="#f88b7c" fill-opacity="1" stroke-opacity="1"/><path d="M595.3163694224302,-90.82360581815351L741.0004847201742,-41.11656251797072L924.0188045339374,-112.71925708552392Z" fill="#f17a7a" stroke="#f17a7a" fill-opacity="1" stroke-opacity="1"/><path d="M741.0004847201742,-41.11656251797072L668.4206304623316,51.13516166956031L762.517246371376,118.15836145028047Z" fill="#f4af99" stroke="#f4af99" fill-opacity="1" stroke-opacity="1"/><path d="M741.0004847201742,-41.11656251797072L762.517246371376,118.15836145028047L951.6990225807874,70.44060069652308Z" fill="#e6aa9e" stroke="#e6aa9e" fill-opacity="1" stroke-opacity="1"/><path d="M741.0004847201742,-41.11656251797072L951.6990225807874,70.44060069652308L924.0188045339374,-112.71925708552392Z" fill="#db7a84" stroke="#db7a84" fill-opacity="1" stroke-opacity="1"/><path d="M924.0188045339374,-112.71925708552392L951.6990225807874,70.44060069652308L1045.280006390308,-119.28919449767392Z" fill="#c65e74" stroke="#c65e74" fill-opacity="1" stroke-opacity="1"/><path d="M1045.280006390308,-119.28919449767392L951.6990225807874,70.44060069652308L1045.585769214722,124.41209301848845Z" fill="#be8087" stroke="#be8087" fill-opacity="1" stroke-opacity="1"/><path d="M1045.280006390308,-119.28919449767392L1045.585769214722,124.41209301848845L1243.7911288122793,-45.7292843808266Z" fill="#ab5872" stroke="#ab5872" fill-opacity="1" stroke-opacity="1"/><path d="M1045.280006390308,-119.28919449767392L1243.7911288122793,-45.7292843808266L1315.9671052272406,-62.972089448064395Z" fill="#993257" stroke="#993257" fill-opacity="1" stroke-opacity="1"/><path d="M1045.280006390308,-119.28919449767392L1315.9671052272406,-62.972089448064395L1495.465194912602,-113.58247892128693Z" fill="#89224d" stroke="#89224d" fill-opacity="1" stroke-opacity="1"/><path d="M1243.7911288122793,-45.7292843808266L1045.585769214722,124.41209301848845L1218.6909575257464,109.30813023123875Z" fill="#a07682" stroke="#a07682" fill-opacity="1" stroke-opacity="1"/><path d="M1243.7911288122793,-45.7292843808266L1218.6909575257464,109.30813023123875L1311.4388463422126,26.90722930823926Z" fill="#8e5470" stroke="#8e5470" fill-opacity="1" stroke-opacity="1"/><path d="M1243.7911288122793,-45.7292843808266L1311.4388463422126,26.90722930823926L1315.9671052272406,-62.972089448064395Z" fill="#882f5c" stroke="#882f5c" fill-opacity="1" stroke-opacity="1"/><path d="M1315.9671052272406,-62.972089448064395L1311.4388463422126,26.90722930823926L1415.9970659311034,24.772392377435395Z" fill="#80305d" stroke="#80305d" fill-opacity="1" stroke-opacity="1"/><path d="M1315.9671052272406,-62.972089448064395L1415.9970659311034,24.772392377435395L1495.465194912602,-113.58247892128693Z" fill="#800c49" stroke="#800c49" fill-opacity="1" stroke-opacity="1"/><path d="M1495.465194912602,-113.58247892128693L1415.9970659311034,24.772392377435395L1486.756915145655,156.97537667176852Z" fill="#802958" stroke="#802958" fill-opacity="1" stroke-opacity="1"/><path d="M1495.465194912602,-113.58247892128693L1486.756915145655,156.97537667176852L1488.8742165268443,617.8468136758561Z" fill="#808092" stroke="#808092" fill-opacity="1" stroke-opacity="1"/><path d="M-15.165807479587158,64.37772360032395L-29.408580493249644,259.8878223092341L45.65633498569366,264.63623212558315Z" fill="#eb9366" stroke="#eb9366" fill-opacity="1" stroke-opacity="1"/><path d="M-15.165807479587158,64.37772360032395L45.65633498569366,264.63623212558315L56.6518352961603,59.743590451983444Z" fill="#ee7e55" stroke="#ee7e55" fill-opacity="1" stroke-opacity="1"/><path d="M56.6518352961603,59.743590451983444L45.65633498569366,264.63623212558315L260.36588307087175,242.3017030852641Z" fill="#f7ad74" stroke="#f7ad74" fill-opacity="1" stroke-opacity="1"/><path d="M56.6518352961603,59.743590451983444L260.36588307087175,242.3017030852641L256.48535360091705,84.78262306392821Z" fill="#fea56a" stroke="#fea56a" fill-opacity="1" stroke-opacity="1"/><path d="M256.48535360091705,84.78262306392821L260.36588307087175,242.3017030852641L332.64392411618394,214.73982296065643Z" fill="#fecf87" stroke="#fecf87" fill-opacity="1" stroke-opacity="1"/><path d="M256.48535360091705,84.78262306392821L332.64392411618394,214.73982296065643L381.1826168942806,117.92020955745464Z" fill="#fec680" stroke="#fec680" fill-opacity="1" stroke-opacity="1"/><path d="M381.1826168942806,117.92020955745464L332.64392411618394,214.73982296065643L527.7439137201876,163.52814158797676Z" fill="#ffe195" stroke="#ffe195" fill-opacity="1" stroke-opacity="1"/><path d="M381.1826168942806,117.92020955745464L527.7439137201876,163.52814158797676L496.13520025634233,72.04408246188414Z" fill="#ffd18c" stroke="#ffd18c" fill-opacity="1" stroke-opacity="1"/><path d="M496.13520025634233,72.04408246188414L527.7439137201876,163.52814158797676L668.4206304623316,51.13516166956031Z" fill="#ffcf91" stroke="#ffcf91" fill-opacity="1" stroke-opacity="1"/><path d="M668.4206304623316,51.13516166956031L527.7439137201876,163.52814158797676L649.7141982878006,211.26293209220034Z" fill="#fce3a7" stroke="#fce3a7" fill-opacity="1" stroke-opacity="1"/><path d="M668.4206304623316,51.13516166956031L649.7141982878006,211.26293209220034L715.5368655542691,163.13813817787502Z" fill="#f7e1b0" stroke="#f7e1b0" fill-opacity="1" stroke-opacity="1"/><path d="M668.4206304623316,51.13516166956031L715.5368655542691,163.13813817787502L762.517246371376,118.15836145028047Z" fill="#f4d2ac" stroke="#f4d2ac" fill-opacity="1" stroke-opacity="1"/><path d="M762.517246371376,118.15836145028047L715.5368655542691,163.13813817787502L754.114338859421,325.94952887935693Z" fill="#f2f8cd" stroke="#f2f8cd" fill-opacity="1" stroke-opacity="1"/><path d="M762.517246371376,118.15836145028047L754.114338859421,325.94952887935693L939.1797368486928,167.43381510180393Z" fill="#e6f2ce" stroke="#e6f2ce" fill-opacity="1" stroke-opacity="1"/><path d="M762.517246371376,118.15836145028047L939.1797368486928,167.43381510180393L951.6990225807874,70.44060069652308Z" fill="#d8c5ae" stroke="#d8c5ae" fill-opacity="1" stroke-opacity="1"/><path d="M951.6990225807874,70.44060069652308L939.1797368486928,167.43381510180393L1045.585769214722,124.41209301848845Z" fill="#c5b8a7" stroke="#c5b8a7" fill-opacity="1" stroke-opacity="1"/><path d="M1045.585769214722,124.41209301848845L939.1797368486928,167.43381510180393L1052.1833121461739,236.92700295493802Z" fill="#bfc9b5" stroke="#bfc9b5" fill-opacity="1" stroke-opacity="1"/><path d="M1045.585769214722,124.41209301848845L1052.1833121461739,236.92700295493802L1218.6909575257464,109.30813023123875Z" fill="#acafa5" stroke="#acafa5" fill-opacity="1" stroke-opacity="1"/><path d="M1218.6909575257464,109.30813023123875L1052.1833121461739,236.92700295493802L1230.3870238631293,261.85997466939233Z" fill="#a0b7ae" stroke="#a0b7ae" fill-opacity="1" stroke-opacity="1"/><path d="M1218.6909575257464,109.30813023123875L1230.3870238631293,261.85997466939233L1363.8708823350337,157.26948545630273Z" fill="#8c979b" stroke="#8c979b" fill-opacity="1" stroke-opacity="1"/><path d="M1218.6909575257464,109.30813023123875L1363.8708823350337,157.26948545630273L1311.4388463422126,26.90722930823926Z" fill="#86717f" stroke="#86717f" fill-opacity="1" stroke-opacity="1"/><path d="M1311.4388463422126,26.90722930823926L1363.8708823350337,157.26948545630273L1415.9970659311034,24.772392377435395Z" fill="#805570" stroke="#805570" fill-opacity="1" stroke-opacity="1"/><path d="M1415.9970659311034,24.772392377435395L1363.8708823350337,157.26948545630273L1486.756915145655,156.97537667176852Z" fill="#806077" stroke="#806077" fill-opacity="1" stroke-opacity="1"/><path d="M-29.408580493249644,259.8878223092341L-112.91785013681402,588.380723269025L-60.35894870984441,485.3822527012105Z" fill="#d8838a" stroke="#d8838a" fill-opacity="1" stroke-opacity="1"/><path d="M-29.408580493249644,259.8878223092341L-60.35894870984441,485.3822527012105L-22.99418250923972,310.09572523216633Z" fill="#e88f86" stroke="#e88f86" fill-opacity="1" stroke-opacity="1"/><path d="M-29.408580493249644,259.8878223092341L-22.99418250923972,310.09572523216633L45.65633498569366,264.63623212558315Z" fill="#eb977d" stroke="#eb977d" fill-opacity="1" stroke-opacity="1"/><path d="M45.65633498569366,264.63623212558315L-22.99418250923972,310.09572523216633L37.302879844386325,400.815504123129Z" fill="#ed9d8a" stroke="#ed9d8a" fill-opacity="1" stroke-opacity="1"/><path d="M45.65633498569366,264.63623212558315L37.302879844386325,400.815504123129L169.31726990142744,373.4718327545487Z" fill="#f3ac96" stroke="#f3ac96" fill-opacity="1" stroke-opacity="1"/><path d="M45.65633498569366,264.63623212558315L169.31726990142744,373.4718327545487L260.36588307087175,242.3017030852641Z" fill="#fabe96" stroke="#fabe96" fill-opacity="1" stroke-opacity="1"/><path d="M260.36588307087175,242.3017030852641L169.31726990142744,373.4718327545487L304.52250746582894,313.485864817381Z" fill="#fed1a6" stroke="#fed1a6" fill-opacity="1" stroke-opacity="1"/><path d="M260.36588307087175,242.3017030852641L304.52250746582894,313.485864817381L332.64392411618394,214.73982296065643Z" fill="#fedd9f" stroke="#fedd9f" fill-opacity="1" stroke-opacity="1"/><path d="M332.64392411618394,214.73982296065643L304.52250746582894,313.485864817381L459.08456474261885,383.89200135544996Z" fill="#ffebb6" stroke="#ffebb6" fill-opacity="1" stroke-opacity="1"/><path d="M332.64392411618394,214.73982296065643L459.08456474261885,383.89200135544996L527.7439137201876,163.52814158797676Z" fill="#fff4b2" stroke="#fff4b2" fill-opacity="1" stroke-opacity="1"/><path d="M527.7439137201876,163.52814158797676L459.08456474261885,383.89200135544996L649.7141982878006,211.26293209220034Z" fill="#fffdbe" stroke="#fffdbe" fill-opacity="1" stroke-opacity="1"/><path d="M649.7141982878006,211.26293209220034L459.08456474261885,383.89200135544996L626.1210715429886,443.74053957737306Z" fill="#ffffd7" stroke="#ffffd7" fill-opacity="1" stroke-opacity="1"/><path d="M649.7141982878006,211.26293209220034L626.1210715429886,443.74053957737306L683.4776153732829,401.2814504704531Z" fill="#f9fde2" stroke="#f9fde2" fill-opacity="1" stroke-opacity="1"/><path d="M649.7141982878006,211.26293209220034L683.4776153732829,401.2814504704531L754.114338859421,325.94952887935693Z" fill="#f6fce4" stroke="#f6fce4" fill-opacity="1" stroke-opacity="1"/><path d="M649.7141982878006,211.26293209220034L754.114338859421,325.94952887935693L715.5368655542691,163.13813817787502Z" fill="#f5fbd0" stroke="#f5fbd0" fill-opacity="1" stroke-opacity="1"/><path d="M939.1797368486928,167.43381510180393L754.114338859421,325.94952887935693L855.7357656777943,366.4438900783253Z" fill="#e0efe2" stroke="#e0efe2" fill-opacity="1" stroke-opacity="1"/><path d="M939.1797368486928,167.43381510180393L855.7357656777943,366.4438900783253L1035.1705778432943,339.0522793173368Z" fill="#cce2dc" stroke="#cce2dc" fill-opacity="1" stroke-opacity="1"/><path d="M939.1797368486928,167.43381510180393L1035.1705778432943,339.0522793173368L1052.1833121461739,236.92700295493802Z" fill="#bfd7ca" stroke="#bfd7ca" fill-opacity="1" stroke-opacity="1"/><path d="M1052.1833121461739,236.92700295493802L1035.1705778432943,339.0522793173368L1156.640890988105,369.0098415202738Z" fill="#b1c9d4" stroke="#b1c9d4" fill-opacity="1" stroke-opacity="1"/><path d="M1052.1833121461739,236.92700295493802L1156.640890988105,369.0098415202738L1230.3870238631293,261.85997466939233Z" fill="#a4bcc8" stroke="#a4bcc8" fill-opacity="1" stroke-opacity="1"/><path d="M1230.3870238631293,261.85997466939233L1156.640890988105,369.0098415202738L1302.574344486931,381.2835202494185Z" fill="#94acc8" stroke="#94acc8" fill-opacity="1" stroke-opacity="1"/><path d="M1230.3870238631293,261.85997466939233L1302.574344486931,381.2835202494185L1363.8708823350337,157.26948545630273Z" fill="#869fb2" stroke="#869fb2" fill-opacity="1" stroke-opacity="1"/><path d="M1363.8708823350337,157.26948545630273L1302.574344486931,381.2835202494185L1415.113165185231,389.1084838077703Z" fill="#8093b8" stroke="#8093b8" fill-opacity="1" stroke-opacity="1"/><path d="M1363.8708823350337,157.26948545630273L1415.113165185231,389.1084838077703L1486.756915145655,156.97537667176852Z" fill="#80879d" stroke="#80879d" fill-opacity="1" stroke-opacity="1"/><path d="M1486.756915145655,156.97537667176852L1415.113165185231,389.1084838077703L1429.0844372409526,445.349489114328Z" fill="#8083b2" stroke="#8083b2" fill-opacity="1" stroke-opacity="1"/><path d="M1486.756915145655,156.97537667176852L1429.0844372409526,445.349489114328L1488.8742165268443,617.8468136758561Z" fill="#8080b9" stroke="#8080b9" fill-opacity="1" stroke-opacity="1"/><path d="M-22.99418250923972,310.09572523216633L-60.35894870984441,485.3822527012105L37.302879844386325,400.815504123129Z" fill="#ea948f" stroke="#ea948f" fill-opacity="1" stroke-opacity="1"/><path d="M37.302879844386325,400.815504123129L-60.35894870984441,485.3822527012105L51.848193981726894,513.4077471598648Z" fill="#d79394" stroke="#d79394" fill-opacity="1" stroke-opacity="1"/><path d="M37.302879844386325,400.815504123129L51.848193981726894,513.4077471598648L169.31726990142744,373.4718327545487Z" fill="#edab9e" stroke="#edab9e" fill-opacity="1" stroke-opacity="1"/><path d="M169.31726990142744,373.4718327545487L51.848193981726894,513.4077471598648L232.51189360738903,435.12763067270305Z" fill="#efb9a7" stroke="#efb9a7" fill-opacity="1" stroke-opacity="1"/><path d="M169.31726990142744,373.4718327545487L232.51189360738903,435.12763067270305L304.52250746582894,313.485864817381Z" fill="#fecfad" stroke="#fecfad" fill-opacity="1" stroke-opacity="1"/><path d="M304.52250746582894,313.485864817381L232.51189360738903,435.12763067270305L374.39298150675506,478.1882312321076Z" fill="#fedebc" stroke="#fedebc" fill-opacity="1" stroke-opacity="1"/><path d="M304.52250746582894,313.485864817381L374.39298150675506,478.1882312321076L459.08456474261885,383.89200135544996Z" fill="#ffeec4" stroke="#ffeec4" fill-opacity="1" stroke-opacity="1"/><path d="M459.08456474261885,383.89200135544996L374.39298150675506,478.1882312321076L442.76217585971756,492.16008743459884Z" fill="#f0eecd" stroke="#f0eecd" fill-opacity="1" stroke-opacity="1"/><path d="M459.08456474261885,383.89200135544996L442.76217585971756,492.16008743459884L626.1210715429886,443.74053957737306Z" fill="#f5f6d7" stroke="#f5f6d7" fill-opacity="1" stroke-opacity="1"/><path d="M683.4776153732829,401.2814504704531L626.1210715429886,443.74053957737306L726.9329620991871,483.4574365014628Z" fill="#ebf8ee" stroke="#ebf8ee" fill-opacity="1" stroke-opacity="1"/><path d="M683.4776153732829,401.2814504704531L726.9329620991871,483.4574365014628L754.114338859421,325.94952887935693Z" fill="#f4fbf3" stroke="#f4fbf3" fill-opacity="1" stroke-opacity="1"/><path d="M754.114338859421,325.94952887935693L726.9329620991871,483.4574365014628L855.7357656777943,366.4438900783253Z" fill="#eef8f8" stroke="#eef8f8" fill-opacity="1" stroke-opacity="1"/><path d="M855.7357656777943,366.4438900783253L726.9329620991871,483.4574365014628L870.6117128780323,450.43608109060193Z" fill="#def0f8" stroke="#def0f8" fill-opacity="1" stroke-opacity="1"/><path d="M855.7357656777943,366.4438900783253L870.6117128780323,450.43608109060193L1035.1705778432943,339.0522793173368Z" fill="#d1e5ed" stroke="#d1e5ed" fill-opacity="1" stroke-opacity="1"/><path d="M1035.1705778432943,339.0522793173368L870.6117128780323,450.43608109060193L1075.8336559271622,538.3071248994822Z" fill="#b7d5ea" stroke="#b7d5ea" fill-opacity="1" stroke-opacity="1"/><path d="M1035.1705778432943,339.0522793173368L1075.8336559271622,538.3071248994822L1156.640890988105,369.0098415202738Z" fill="#aec7e1" stroke="#aec7e1" fill-opacity="1" stroke-opacity="1"/><path d="M1156.640890988105,369.0098415202738L1075.8336559271622,538.3071248994822L1223.3577444216444,515.9131600769435Z" fill="#8bb3da" stroke="#8bb3da" fill-opacity="1" stroke-opacity="1"/><path d="M1156.640890988105,369.0098415202738L1223.3577444216444,515.9131600769435L1306.1017354672692,450.6764668532392Z" fill="#87a8d2" stroke="#87a8d2" fill-opacity="1" stroke-opacity="1"/><path d="M1156.640890988105,369.0098415202738L1306.1017354672692,450.6764668532392L1302.574344486931,381.2835202494185Z" fill="#8fa7ce" stroke="#8fa7ce" fill-opacity="1" stroke-opacity="1"/><path d="M1302.574344486931,381.2835202494185L1306.1017354672692,450.6764668532392L1415.113165185231,389.1084838077703Z" fill="#8097c6" stroke="#8097c6" fill-opacity="1" stroke-opacity="1"/><path d="M1415.113165185231,389.1084838077703L1306.1017354672692,450.6764668532392L1429.0844372409526,445.349489114328Z" fill="#7a8dc3" stroke="#7a8dc3" fill-opacity="1" stroke-opacity="1"/><path d="M-60.35894870984441,485.3822527012105L-112.91785013681402,588.380723269025L65.25628721465802,592.7590655224341Z" fill="#ae7187" stroke="#ae7187" fill-opacity="1" stroke-opacity="1"/><path d="M-60.35894870984441,485.3822527012105L65.25628721465802,592.7590655224341L51.848193981726894,513.4077471598648Z" fill="#be8993" stroke="#be8993" fill-opacity="1" stroke-opacity="1"/><path d="M51.848193981726894,513.4077471598648L65.25628721465802,592.7590655224341L167.60242630431804,584.3843540918105Z" fill="#b78d97" stroke="#b78d97" fill-opacity="1" stroke-opacity="1"/><path d="M51.848193981726894,513.4077471598648L167.60242630431804,584.3843540918105L232.51189360738903,435.12763067270305Z" fill="#d3afa7" stroke="#d3afa7" fill-opacity="1" stroke-opacity="1"/><path d="M232.51189360738903,435.12763067270305L167.60242630431804,584.3843540918105L374.39298150675506,478.1882312321076Z" fill="#dcc9b6" stroke="#dcc9b6" fill-opacity="1" stroke-opacity="1"/><path d="M374.39298150675506,478.1882312321076L167.60242630431804,584.3843540918105L300.5813612245918,670.65560382651Z" fill="#bab1ad" stroke="#bab1ad" fill-opacity="1" stroke-opacity="1"/><path d="M374.39298150675506,478.1882312321076L300.5813612245918,670.65560382651L499.67078999920636,587.9439370498686Z" fill="#bac8bc" stroke="#bac8bc" fill-opacity="1" stroke-opacity="1"/><path d="M374.39298150675506,478.1882312321076L499.67078999920636,587.9439370498686L442.76217585971756,492.16008743459884Z" fill="#d4e5ce" stroke="#d4e5ce" fill-opacity="1" stroke-opacity="1"/><path d="M442.76217585971756,492.16008743459884L499.67078999920636,587.9439370498686L626.1210715429886,443.74053957737306Z" fill="#daeed9" stroke="#daeed9" fill-opacity="1" stroke-opacity="1"/><path d="M626.1210715429886,443.74053957737306L499.67078999920636,587.9439370498686L591.4925716161734,668.2665737510597Z" fill="#c0dcd5" stroke="#c0dcd5" fill-opacity="1" stroke-opacity="1"/><path d="M626.1210715429886,443.74053957737306L591.4925716161734,668.2665737510597L726.9329620991871,483.4574365014628Z" fill="#cae9e7" stroke="#cae9e7" fill-opacity="1" stroke-opacity="1"/><path d="M726.9329620991871,483.4574365014628L591.4925716161734,668.2665737510597L749.5132868047478,604.1116962194005Z" fill="#afd1e2" stroke="#afd1e2" fill-opacity="1" stroke-opacity="1"/><path d="M726.9329620991871,483.4574365014628L749.5132868047478,604.1116962194005L870.6117128780323,450.43608109060193Z" fill="#c6ebfb" stroke="#c6ebfb" fill-opacity="1" stroke-opacity="1"/><path d="M870.6117128780323,450.43608109060193L749.5132868047478,604.1116962194005L899.6927240630571,684.7611642170948Z" fill="#9dc7ea" stroke="#9dc7ea" fill-opacity="1" stroke-opacity="1"/><path d="M870.6117128780323,450.43608109060193L899.6927240630571,684.7611642170948L1075.8336559271622,538.3071248994822Z" fill="#90c2e6" stroke="#90c2e6" fill-opacity="1" stroke-opacity="1"/><path d="M1075.8336559271622,538.3071248994822L899.6927240630571,684.7611642170948L1060.6919702051691,659.3666975189716Z" fill="#6598d3" stroke="#6598d3" fill-opacity="1" stroke-opacity="1"/><path d="M1075.8336559271622,538.3071248994822L1060.6919702051691,659.3666975189716L1139.895174300649,683.6722473908264Z" fill="#558acb" stroke="#558acb" fill-opacity="1" stroke-opacity="1"/><path d="M1075.8336559271622,538.3071248994822L1139.895174300649,683.6722473908264L1223.3577444216444,515.9131600769435Z" fill="#6094cf" stroke="#6094cf" fill-opacity="1" stroke-opacity="1"/><path d="M1223.3577444216444,515.9131600769435L1139.895174300649,683.6722473908264L1206.4831317720018,723.5755369977601Z" fill="#3c71be" stroke="#3c71be" fill-opacity="1" stroke-opacity="1"/><path d="M1223.3577444216444,515.9131600769435L1206.4831317720018,723.5755369977601L1379.309998843695,658.8262555545242Z" fill="#2f65b8" stroke="#2f65b8" fill-opacity="1" stroke-opacity="1"/><path d="M1223.3577444216444,515.9131600769435L1379.309998843695,658.8262555545242L1306.1017354672692,450.6764668532392Z" fill="#5186c6" stroke="#5186c6" fill-opacity="1" stroke-opacity="1"/><path d="M1306.1017354672692,450.6764668532392L1379.309998843695,658.8262555545242L1429.0844372409526,445.349489114328Z" fill="#5682c3" stroke="#5682c3" fill-opacity="1" stroke-opacity="1"/><path d="M1429.0844372409526,445.349489114328L1379.309998843695,658.8262555545242L1488.8742165268443,617.8468136758561Z" fill="#3d5fb3" stroke="#3d5fb3" fill-opacity="1" stroke-opacity="1"/><path d="M-112.91785013681402,588.380723269025L-123.77142438316608,934.469489627686L-72.4893924356152,806.6132145232339Z" fill="#620253" stroke="#620253" fill-opacity="1" stroke-opacity="1"/><path d="M-112.91785013681402,588.380723269025L-72.4893924356152,806.6132145232339L65.25628721465802,592.7590655224341Z" fill="#7e4272" stroke="#7e4272" fill-opacity="1" stroke-opacity="1"/><path d="M65.25628721465802,592.7590655224341L-72.4893924356152,806.6132145232339L124.85939087070271,810.8510444382919Z" fill="#70356e" stroke="#70356e" fill-opacity="1" stroke-opacity="1"/><path d="M65.25628721465802,592.7590655224341L124.85939087070271,810.8510444382919L167.60242630431804,584.3843540918105Z" fill="#8d6886" stroke="#8d6886" fill-opacity="1" stroke-opacity="1"/><path d="M167.60242630431804,584.3843540918105L124.85939087070271,810.8510444382919L228.61558684302898,755.5152233837986Z" fill="#7c5e83" stroke="#7c5e83" fill-opacity="1" stroke-opacity="1"/><path d="M167.60242630431804,584.3843540918105L228.61558684302898,755.5152233837986L300.5813612245918,670.65560382651Z" fill="#917f94" stroke="#917f94" fill-opacity="1" stroke-opacity="1"/><path d="M300.5813612245918,670.65560382651L228.61558684302898,755.5152233837986L390.165175340901,780.7855202259562Z" fill="#7f7392" stroke="#7f7392" fill-opacity="1" stroke-opacity="1"/><path d="M300.5813612245918,670.65560382651L390.165175340901,780.7855202259562L499.67078999920636,587.9439370498686Z" fill="#8e9daa" stroke="#8e9daa" fill-opacity="1" stroke-opacity="1"/><path d="M499.67078999920636,587.9439370498686L390.165175340901,780.7855202259562L445.3250653700723,805.0702729852189Z" fill="#7f8ea7" stroke="#7f8ea7" fill-opacity="1" stroke-opacity="1"/><path d="M499.67078999920636,587.9439370498686L445.3250653700723,805.0702729852189L591.4925716161734,668.2665737510597Z" fill="#8ba3b6" stroke="#8ba3b6" fill-opacity="1" stroke-opacity="1"/><path d="M591.4925716161734,668.2665737510597L445.3250653700723,805.0702729852189L669.7426026151747,795.9329217456545Z" fill="#808ab0" stroke="#808ab0" fill-opacity="1" stroke-opacity="1"/><path d="M591.4925716161734,668.2665737510597L669.7426026151747,795.9329217456545L749.5132868047478,604.1116962194005Z" fill="#83a4cb" stroke="#83a4cb" fill-opacity="1" stroke-opacity="1"/><path d="M749.5132868047478,604.1116962194005L669.7426026151747,795.9329217456545L801.4141285472925,778.6482118424675Z" fill="#7392cf" stroke="#7392cf" fill-opacity="1" stroke-opacity="1"/><path d="M749.5132868047478,604.1116962194005L801.4141285472925,778.6482118424675L899.6927240630571,684.7611642170948Z" fill="#719bd7" stroke="#719bd7" fill-opacity="1" stroke-opacity="1"/><path d="M899.6927240630571,684.7611642170948L801.4141285472925,778.6482118424675L914.071640224839,798.5647525314861Z" fill="#5c78c6" stroke="#5c78c6" fill-opacity="1" stroke-opacity="1"/><path d="M899.6927240630571,684.7611642170948L914.071640224839,798.5647525314861L1047.3128857390036,759.9710962289447Z" fill="#4b70c1" stroke="#4b70c1" fill-opacity="1" stroke-opacity="1"/><path d="M899.6927240630571,684.7611642170948L1047.3128857390036,759.9710962289447L1060.6919702051691,659.3666975189716Z" fill="#467bc5" stroke="#467bc5" fill-opacity="1" stroke-opacity="1"/><path d="M1060.6919702051691,659.3666975189716L1047.3128857390036,759.9710962289447L1139.895174300649,683.6722473908264Z" fill="#366bbe" stroke="#366bbe" fill-opacity="1" stroke-opacity="1"/><path d="M1139.895174300649,683.6722473908264L1047.3128857390036,759.9710962289447L1206.4831317720018,723.5755369977601Z" fill="#2859b4" stroke="#2859b4" fill-opacity="1" stroke-opacity="1"/><path d="M1379.309998843695,658.8262555545242L1206.4831317720018,723.5755369977601L1340.8453458251772,717.8256773054924Z" fill="#0a40a7" stroke="#0a40a7" fill-opacity="1" stroke-opacity="1"/><path d="M1379.309998843695,658.8262555545242L1340.8453458251772,717.8256773054924L1432.6065692697402,752.3921533534306Z" fill="#022d9d" stroke="#022d9d" fill-opacity="1" stroke-opacity="1"/><path d="M1379.309998843695,658.8262555545242L1432.6065692697402,752.3921533534306L1488.8742165268443,617.8468136758561Z" fill="#10339f" stroke="#10339f" fill-opacity="1" stroke-opacity="1"/><path d="M1488.8742165268443,617.8468136758561L1432.6065692697402,752.3921533534306L1418.17695031315,890.8673716156992Z" fill="#000f8e" stroke="#000f8e" fill-opacity="1" stroke-opacity="1"/><path d="M-72.4893924356152,806.6132145232339L-123.77142438316608,934.469489627686L93.1848066349308,929.822795156187Z" fill="#681046" stroke="#681046" fill-opacity="1" stroke-opacity="1"/><path d="M-72.4893924356152,806.6132145232339L93.1848066349308,929.822795156187L124.85939087070271,810.8510444382919Z" fill="#702459" stroke="#702459" fill-opacity="1" stroke-opacity="1"/><path d="M124.85939087070271,810.8510444382919L93.1848066349308,929.822795156187L227.197353078133,928.4174455591566Z" fill="#7a3c5e" stroke="#7a3c5e" fill-opacity="1" stroke-opacity="1"/><path d="M124.85939087070271,810.8510444382919L227.197353078133,928.4174455591566L228.61558684302898,755.5152233837986Z" fill="#7e476f" stroke="#7e476f" fill-opacity="1" stroke-opacity="1"/><path d="M228.61558684302898,755.5152233837986L227.197353078133,928.4174455591566L310.9793055239431,862.1643673036567Z" fill="#7f5475" stroke="#7f5475" fill-opacity="1" stroke-opacity="1"/><path d="M228.61558684302898,755.5152233837986L310.9793055239431,862.1643673036567L390.165175340901,780.7855202259562Z" fill="#7f6086" stroke="#7f6086" fill-opacity="1" stroke-opacity="1"/><path d="M390.165175340901,780.7855202259562L310.9793055239431,862.1643673036567L445.3250653700723,805.0702729852189Z" fill="#7f708d" stroke="#7f708d" fill-opacity="1" stroke-opacity="1"/><path d="M445.3250653700723,805.0702729852189L310.9793055239431,862.1643673036567L543.8206018465876,945.918942424704Z" fill="#7f7489" stroke="#7f7489" fill-opacity="1" stroke-opacity="1"/><path d="M445.3250653700723,805.0702729852189L543.8206018465876,945.918942424704L669.7426026151747,795.9329217456545Z" fill="#807e9c" stroke="#807e9c" fill-opacity="1" stroke-opacity="1"/><path d="M669.7426026151747,795.9329217456545L543.8206018465876,945.918942424704L597.9094090790462,948.9788775749257Z" fill="#7e7f9a" stroke="#7e7f9a" fill-opacity="1" stroke-opacity="1"/><path d="M669.7426026151747,795.9329217456545L597.9094090790462,948.9788775749257L807.2146986433721,887.4960553284944Z" fill="#777caa" stroke="#777caa" fill-opacity="1" stroke-opacity="1"/><path d="M669.7426026151747,795.9329217456545L807.2146986433721,887.4960553284944L801.4141285472925,778.6482118424675Z" fill="#717abf" stroke="#717abf" fill-opacity="1" stroke-opacity="1"/><path d="M801.4141285472925,778.6482118424675L807.2146986433721,887.4960553284944L914.071640224839,798.5647525314861Z" fill="#6270bb" stroke="#6270bb" fill-opacity="1" stroke-opacity="1"/><path d="M914.071640224839,798.5647525314861L807.2146986433721,887.4960553284944L959.9265421479854,928.4787112997212Z" fill="#5769ae" stroke="#5769ae" fill-opacity="1" stroke-opacity="1"/><path d="M914.071640224839,798.5647525314861L959.9265421479854,928.4787112997212L1051.9347710510804,876.411359431092Z" fill="#465da8" stroke="#465da8" fill-opacity="1" stroke-opacity="1"/><path d="M914.071640224839,798.5647525314861L1051.9347710510804,876.411359431092L1047.3128857390036,759.9710962289447Z" fill="#4158b0" stroke="#4158b0" fill-opacity="1" stroke-opacity="1"/><path d="M1047.3128857390036,759.9710962289447L1051.9347710510804,876.411359431092L1206.4831317720018,723.5755369977601Z" fill="#2d45ab" stroke="#2d45ab" fill-opacity="1" stroke-opacity="1"/><path d="M1206.4831317720018,723.5755369977601L1051.9347710510804,876.411359431092L1194.419197159395,927.4274743583329Z" fill="#243c9b" stroke="#243c9b" fill-opacity="1" stroke-opacity="1"/><path d="M1206.4831317720018,723.5755369977601L1194.419197159395,927.4274743583329L1322.3389005534234,874.8695699413971Z" fill="#122a92" stroke="#122a92" fill-opacity="1" stroke-opacity="1"/><path d="M1206.4831317720018,723.5755369977601L1322.3389005534234,874.8695699413971L1340.8453458251772,717.8256773054924Z" fill="#08259b" stroke="#08259b" fill-opacity="1" stroke-opacity="1"/><path d="M1340.8453458251772,717.8256773054924L1322.3389005534234,874.8695699413971L1432.6065692697402,752.3921533534306Z" fill="#001391" stroke="#001391" fill-opacity="1" stroke-opacity="1"/><path d="M1432.6065692697402,752.3921533534306L1322.3389005534234,874.8695699413971L1418.17695031315,890.8673716156992Z" fill="#000e83" stroke="#000e83" fill-opacity="1" stroke-opacity="1"/><path d="M-123.77142438316608,934.469489627686L597.9094090790462,948.9788775749257L543.8206018465876,945.918942424704Z" fill="#7f666f" stroke="#7f666f" fill-opacity="1" stroke-opacity="1"/><path d="M-123.77142438316608,934.469489627686L543.8206018465876,945.918942424704L93.1848066349308,929.822795156187Z" fill="#7c4258" stroke="#7c4258" fill-opacity="1" stroke-opacity="1"/><path d="M93.1848066349308,929.822795156187L543.8206018465876,945.918942424704L227.197353078133,928.4174455591566Z" fill="#7f5b69" stroke="#7f5b69" fill-opacity="1" stroke-opacity="1"/><path d="M227.197353078133,928.4174455591566L543.8206018465876,945.918942424704L310.9793055239431,862.1643673036567Z" fill="#7f6b78" stroke="#7f6b78" fill-opacity="1" stroke-opacity="1"/><path d="M597.9094090790462,948.9788775749257L1194.419197159395,927.4274743583329L959.9265421479854,928.4787112997212Z" fill="#5266a0" stroke="#5266a0" fill-opacity="1" stroke-opacity="1"/><path d="M597.9094090790462,948.9788775749257L959.9265421479854,928.4787112997212L807.2146986433721,887.4960553284944Z" fill="#6d77ac" stroke="#6d77ac" fill-opacity="1" stroke-opacity="1"/><path d="M959.9265421479854,928.4787112997212L1194.419197159395,927.4274743583329L1051.9347710510804,876.411359431092Z" fill="#344c96" stroke="#344c96" fill-opacity="1" stroke-opacity="1"/><path d="M1194.419197159395,927.4274743583329L1418.17695031315,890.8673716156992L1322.3389005534234,874.8695699413971Z" fill="#041d80" stroke="#041d80" fill-opacity="1" stroke-opacity="1"/></g><filter id="noise"><feTurbulence type="fractalNoise" in="fillPaint" fill="#F00" baseFrequency="0.7" numOctaves="10" stitchTiles="stitch"/><feComponentTransfer><feFuncR type="linear" slope="2" intercept="-.5"/><feFuncG type="linear" slope="2" intercept="-.5"/><feFuncB type="linear" slope="2" intercept="-.5"/></feComponentTransfer><feColorMatrix type="matrix" values="0.3333 0.3333 0.3333 0 0 
 0.3333 0.3333 0.3333 0 0 
 0.3333 0.3333 0.3333 0 0 
 0 0 0 1 0"/></filter><rect opacity="0.4000000000000001" width="100%" height="100%" filter="url(#noise)"/></svg>